<?xml version="1.0" encoding="UTF-8"?>
<svg id="Layer_1" xmlns="http://www.w3.org/2000/svg" version="1.1" viewBox="0 0 338.77 66.26">
  <!-- Generator: Adobe Illustrator 30.0.0, SVG Export Plug-In . SVG Version: 2.1.1 Build 123)  -->
  <defs>
    <style>
      .st0 {
        fill: #231f20;
      }

      .st1 {
        fill: none;
        stroke: #be1e2d;
        stroke-width: 2px;
      }
    </style>
  </defs>
  <path class="st0" d="M77.46,3.64c-1.78-2.13-4.43-3.3-7.47-3.3H12.89c-1.43,0-2.76,1.14-3.02,2.62L.04,63.39c-.13.73.05,1.46.51,2,.46.55,1.16.87,1.92.87h8.44c1.43,0,2.76-1.14,3.03-2.63l3.38-23.96h20.15l20.47,24.33c.88,1.05,2.15,2.26,4.25,2.26h10.13c1.51,0,2.77-.61,3.2-1.55.26-.57.17-1.2-.24-1.67l-19.66-23.37h7.72c6.08,0,11.9-4.82,12.95-10.75l3.08-17.57c.52-2.89-.16-5.63-1.91-7.71ZM64.93,14.15l-2.42,14.19H19.34l2.42-14.19h43.16Z"/>
  <path class="st0" d="M154.98,53.17c-.44-.53-1.09-.82-1.83-.82h-54.23L107.3,2.87c.13-.73-.05-1.46-.5-2-.46-.55-1.16-.87-1.92-.87h-8.44c-1.43,0-2.76,1.14-3.02,2.61l-9.72,56.61c-.33,1.84.12,3.6,1.25,4.95,1.12,1.33,2.81,2.09,4.66,2.09h61.37c1.43,0,2.75-1.14,3.02-2.61l1.49-8.44c.14-.76-.04-1.5-.5-2.05Z"/>
  <g>
    <path class="st0" d="M125.57,21.05h20.82c1.71,0,2.87,1.41,2.57,3.12l-1.71,9.52c-.3,1.71-1.92,3.12-3.63,3.12h-26.11c-.55,0-.96-.45-.86-1.01l.76-4.28c.1-.55.66-1.01,1.21-1.01h22.93l.55-3.18h-20.81c-1.71,0-2.87-1.41-2.57-3.12l1.66-9.48c.3-1.71,1.97-3.12,3.68-3.12h26.11c.55,0,.91.45.81,1.01l-.76,4.28c-.1.55-.6,1.01-1.16,1.01h-22.93l-.55,3.12Z"/>
    <path class="st0" d="M184.89,14.75c-.3,1.71-1.96,3.12-3.68,3.12h-19.81l-2.22,12.65h22.93c.55,0,.91.45.81,1.01l-.76,4.28c-.1.55-.6,1.01-1.16,1.01h-26.11c-1.71,0-2.92-1.41-2.62-3.12l4.64-26.11c.1-.55.6-1.01,1.16-1.01h4.28c.55,0,.96.45.86,1.01l-.71,4.03h21.92c.55,0,.91.45.81,1.01l-.35,2.12Z"/>
    <path class="st0" d="M196.68,17.93l-3.18,17.89c-.1.55-.6,1.01-1.16,1.01h-4.28c-.55,0-.96-.45-.86-1.01l4.08-23.18c.1-.55.66-1.01,1.21-1.01h26.11c1.71,0,2.87,1.41,2.57,3.12l-.4,2.17c-.1.55-.6,1.01-1.16,1.01h-22.93Z"/>
    <path class="st0" d="M226.77,35.82c-.1.55-.6,1.01-1.16,1.01h-4.28c-.55,0-.96-.45-.86-1.01l4.08-23.18c.1-.55.66-1.01,1.21-1.01h4.28c.55,0,.91.45.81,1.01l-4.08,23.18ZM231.71,7.75c-.1.55-.6,1.01-1.16,1.01h-4.28c-.55,0-.96-.45-.86-1.01l.5-2.67c.1-.55.6-1.01,1.16-1.01h4.28c.55,0,.96.45.86,1.01l-.5,2.67Z"/>
    <path class="st0" d="M241.23,17.93l-3.18,17.89c-.1.55-.6,1.01-1.16,1.01h-4.28c-.55,0-.96-.45-.86-1.01l4.08-23.18c.1-.55.66-1.01,1.21-1.01h26.11c1.71,0,2.87,1.41,2.57,3.12l-3.73,21.07c-.1.55-.6,1.01-1.16,1.01h-4.28c-.55,0-.96-.45-.86-1.01l3.17-17.89h-17.64Z"/>
    <path class="st0" d="M270.77,14.75c.3-1.71,1.97-3.12,3.68-3.12h23.99c1.71,0,2.87,1.41,2.57,3.12l-4.69,26.51c-.3,1.71-1.96,3.12-3.68,3.12h-25.1c-.55,0-.91-.45-.81-1.01l.76-4.28c.1-.55.6-1.01,1.16-1.01h21.92l.45-2.52h-20.81c-1.71,0-2.87-1.41-2.57-3.12l3.12-17.69ZM274.35,30.02h17.64l2.17-12.1h-17.64l-2.17,12.1Z"/>
    <path class="st0" d="M311.24,21.05h20.82c1.71,0,2.87,1.41,2.57,3.12l-1.71,9.52c-.3,1.71-1.92,3.12-3.63,3.12h-26.11c-.55,0-.96-.45-.86-1.01l.76-4.28c.1-.55.66-1.01,1.21-1.01h22.93l.55-3.18h-20.82c-1.71,0-2.87-1.41-2.57-3.12l1.66-9.48c.3-1.71,1.97-3.12,3.68-3.12h26.11c.55,0,.91.45.81,1.01l-.76,4.28c-.1.55-.6,1.01-1.16,1.01h-22.93l-.55,3.12Z"/>
  </g>
  <line class="st1" x1="237.55" y1="4.45" x2="338.77" y2="4.45"/>
  <line class="st1" x1="168.99" y1="4.45" x2="221.56" y2="4.45"/>
  <line class="st1" x1="121.82" y1="4.45" x2="150.47" y2="4.45"/>
  <line class="st1" x1="115.03" y1="43.95" x2="260.86" y2="43.95"/>
  <line class="st1" x1="301.78" y1="43.95" x2="331.06" y2="43.95"/>
</svg>