<?xml version="1.0" encoding="UTF-8"?>
<svg id="Layer_1" data-name="Layer 1" xmlns="http://www.w3.org/2000/svg" viewBox="0 0 288 288">
  <defs>
    <style>
      .cls-1 {
        fill: #231f20;
      }

      .cls-2 {
        fill: none;
        stroke: #be1e2d;
        stroke-width: 2px;
      }
    </style>
  </defs>
  <g>
    <path class="cls-1" d="M143.62,69.66c-2.3-2.74-5.72-4.26-9.64-4.26H60.3c-1.84,0-3.56,1.47-3.9,3.37l-12.68,77.98c-.17.94.07,1.88.65,2.58.6.71,1.5,1.13,2.48,1.13h10.89c1.84,0,3.56-1.48,3.9-3.4l4.37-30.91h26l26.41,31.4c1.13,1.36,2.78,2.91,5.49,2.91h13.07c1.95,0,3.57-.79,4.12-2.01.34-.74.22-1.55-.31-2.15l-25.37-30.15h9.96c7.85,0,15.35-6.22,16.71-13.87l3.97-22.68c.67-3.73-.21-7.26-2.46-9.95ZM127.45,83.23l-3.13,18.31h-55.69l3.13-18.31h55.69Z"/>
    <path class="cls-1" d="M243.64,133.57c-.57-.69-1.41-1.06-2.36-1.06h-69.97l10.81-63.84c.17-.94-.07-1.88-.65-2.58-.6-.72-1.5-1.13-2.48-1.13h-10.89c-1.85,0-3.56,1.48-3.9,3.37l-12.54,73.05c-.42,2.38.15,4.65,1.61,6.38,1.44,1.71,3.63,2.7,6.01,2.7h79.18c1.84,0,3.55-1.48,3.9-3.36l1.92-10.88c.18-.98-.05-1.94-.64-2.64Z"/>
  </g>
  <g>
    <g>
      <path class="cls-1" d="M17.87,193.99h25.91c2.13,0,3.58,1.76,3.2,3.89l-2.13,11.86c-.38,2.13-2.38,3.89-4.52,3.89H7.83c-.69,0-1.19-.56-1.07-1.25l.94-5.33c.13-.69.82-1.26,1.51-1.26h28.54l.69-3.95H12.53c-2.13,0-3.58-1.76-3.2-3.89l2.07-11.79c.38-2.13,2.45-3.89,4.58-3.89h32.5c.69,0,1.13.56,1,1.25l-.94,5.33c-.13.69-.75,1.25-1.44,1.25h-28.54l-.69,3.89Z"/>
      <path class="cls-1" d="M91.7,186.15c-.38,2.13-2.45,3.89-4.58,3.89h-24.65l-2.76,15.75h28.54c.69,0,1.13.56,1,1.26l-.94,5.33c-.13.69-.75,1.25-1.44,1.25h-32.5c-2.13,0-3.64-1.76-3.26-3.89l5.77-32.5c.13-.69.75-1.25,1.44-1.25h5.33c.69,0,1.19.56,1.07,1.25l-.88,5.02h27.29c.69,0,1.13.56,1,1.25l-.44,2.63Z"/>
      <path class="cls-1" d="M106.38,190.1l-3.95,22.27c-.13.69-.75,1.25-1.44,1.25h-5.33c-.69,0-1.19-.56-1.07-1.25l5.08-28.86c.13-.69.82-1.25,1.5-1.25h32.5c2.13,0,3.58,1.76,3.2,3.89l-.5,2.7c-.13.69-.75,1.25-1.44,1.25h-28.54Z"/>
      <path class="cls-1" d="M143.83,212.37c-.13.69-.75,1.25-1.44,1.25h-5.33c-.69,0-1.19-.56-1.07-1.25l5.08-28.86c.13-.69.82-1.25,1.5-1.25h5.33c.69,0,1.13.56,1,1.25l-5.08,28.86ZM149.98,177.43c-.13.69-.75,1.25-1.44,1.25h-5.33c-.69,0-1.19-.56-1.07-1.25l.63-3.33c.13-.69.75-1.25,1.44-1.25h5.33c.69,0,1.19.56,1.07,1.25l-.63,3.33Z"/>
      <path class="cls-1" d="M161.84,190.1l-3.95,22.27c-.13.69-.75,1.25-1.44,1.25h-5.33c-.69,0-1.19-.56-1.07-1.25l5.08-28.86c.13-.69.82-1.25,1.5-1.25h32.5c2.13,0,3.58,1.76,3.2,3.89l-4.64,26.22c-.13.69-.75,1.25-1.44,1.25h-5.33c-.69,0-1.19-.56-1.07-1.25l3.95-22.27h-21.96Z"/>
      <path class="cls-1" d="M198.6,186.15c.38-2.13,2.45-3.89,4.58-3.89h29.86c2.13,0,3.58,1.76,3.2,3.89l-5.83,33c-.38,2.13-2.45,3.89-4.58,3.89h-31.24c-.69,0-1.13-.56-1-1.25l.94-5.33c.13-.69.75-1.26,1.44-1.26h27.29l.56-3.14h-25.91c-2.13,0-3.58-1.76-3.2-3.89l3.89-22.02ZM203.06,205.15h21.96l2.7-15.06h-21.96l-2.7,15.06Z"/>
      <path class="cls-1" d="M248.98,193.99h25.91c2.13,0,3.58,1.76,3.2,3.89l-2.13,11.86c-.38,2.13-2.38,3.89-4.52,3.89h-32.5c-.69,0-1.19-.56-1.07-1.25l.94-5.33c.13-.69.82-1.26,1.51-1.26h28.54l.69-3.95h-25.91c-2.13,0-3.57-1.76-3.2-3.89l2.07-11.79c.38-2.13,2.45-3.89,4.58-3.89h32.5c.69,0,1.13.56,1,1.25l-.94,5.33c-.13.69-.75,1.25-1.44,1.25h-28.54l-.69,3.89Z"/>
    </g>
    <line class="cls-2" x1="157.26" y1="173.32" x2="283.24" y2="173.32"/>
    <line class="cls-2" x1="71.91" y1="173.32" x2="137.35" y2="173.32"/>
    <line class="cls-2" x1="13.2" y1="173.32" x2="48.86" y2="173.32"/>
    <line class="cls-2" x1="4.76" y1="222.49" x2="186.26" y2="222.49"/>
    <line class="cls-2" x1="237.2" y1="222.49" x2="273.65" y2="222.49"/>
  </g>
</svg>