<?xml version="1.0" encoding="UTF-8" standalone="no"?>
<!DOCTYPE svg PUBLIC "-//W3C//DTD SVG 1.1//EN" "http://www.w3.org/Graphics/SVG/1.1/DTD/svg11.dtd">
<svg width="100%" height="100%" viewBox="0 0 1395 1343" version="1.1" xmlns="http://www.w3.org/2000/svg" xmlns:xlink="http://www.w3.org/1999/xlink" xml:space="preserve" xmlns:serif="http://www.serif.com/" style="fill-rule:evenodd;clip-rule:evenodd;stroke-linejoin:round;stroke-miterlimit:2;">
    <g transform="matrix(1,0,0,1,-1215,-1468)">
        <g transform="matrix(1,0,0,1,-1096.483375,366)">
            <g transform="matrix(1.122285,0,0,1.087449,862.613705,-553.097976)">
                <path d="M1912.5,1522C2255.515,1522 2534,1798.692 2534,2139.5C2534,2480.308 2255.515,2757 1912.5,2757C1569.485,2757 1291,2480.308 1291,2139.5C1291,1798.692 1569.485,1522 1912.5,1522ZM1915.619,1529.357C1588.586,1529.357 1323.077,1801.311 1323.077,2136.281C1323.077,2471.252 1588.586,2743.206 1915.619,2743.206C2242.651,2743.206 2508.16,2471.252 2508.16,2136.281C2508.16,1801.311 2242.651,1529.357 1915.619,1529.357ZM1352.144,2019.84C1351.918,2021.101 1351.431,2023.892 1350.043,2032L1354.739,2007.513C1397.95,1804.247 1491.431,1725.034 1566.86,1665.123C1636.838,1609.543 1728.778,1540.93 1916.336,1540.845C2244.493,1540.696 2358.426,1752.865 2409.371,1845.533C2461.042,1939.522 2500.514,2058.286 2480.762,2218.252C2478.65,2235.353 2450.597,2341.454 2446.59,2351.872C2406.071,2457.194 2346.506,2534.118 2273.712,2595.465C2218.415,2642.066 2130.215,2730.464 1919.623,2730.458C1689.472,2730.453 1565.421,2615.61 1491.406,2530.416C1412.991,2440.156 1300.895,2298.923 1352.144,2019.84ZM2078.65,2162.066C2076.247,2161.093 2075.965,2160.437 2069.799,2160.415C2060.546,2160.382 2000.197,2160.169 1954.134,2160.417C1946.572,2160.458 1946.305,2164.537 1945.184,2172.051C1944.156,2178.941 1929.886,2260.779 1929.025,2267.349C1927.855,2276.283 1925.126,2280.576 1933.843,2280.596C1953.008,2280.639 1953.746,2280.992 1955.902,2277.619C1957.423,2275.24 1960.803,2250.443 1962.193,2243.21C1965.723,2224.835 1968.883,2203.78 1969.597,2200.337C1971.142,2192.886 1970.072,2190.499 1974.424,2190.483C1980.514,2190.462 2042.486,2190.239 2050.558,2190.481C2052.648,2190.543 2052.68,2191.689 2052.454,2192.947C2044.817,2235.33 2045.232,2235.377 2044.511,2239.049C2041.769,2253.018 2041.284,2258.434 2038.85,2271.577C2037.235,2280.299 2039.961,2280.595 2045.449,2280.597C2062.559,2280.602 2063.49,2280.934 2065.691,2278.773C2066.6,2277.88 2067.464,2277.032 2069.532,2263.07C2071.155,2252.115 2073.592,2239.657 2074.579,2233.744C2081.015,2195.172 2081.204,2195.227 2081.75,2191.872C2084.516,2174.861 2087.62,2168.327 2078.65,2162.066ZM1881.138,2123.847L1880.891,2121.958L1878.037,2121.868L1757.302,2121.883C1641.99,2121.883 1641.992,2121.891 1638.599,2121.809C1636.86,2121.914 1636.834,2121.817 1636.723,2121.922C1636.17,2122.444 1636.518,2122.562 1636.568,2124.899C1636.641,2128.261 1636.336,2130.149 1636.338,2130.212C1636.391,2132.414 1637.451,2131.354 1639.607,2131.226C1640.258,2131.187 1640.258,2131.192 1848.616,2131.192C1877.651,2131.192 1877.611,2131.507 1880.13,2131.408C1881.544,2131.352 1881.034,2130.599 1881.138,2123.847ZM1907.093,2085.202C1901.282,2089.314 1901.245,2094.145 1901.238,2095.071C1901.173,2103.6 1907.456,2109.276 1906.918,2117.073C1906.63,2121.246 1905.168,2127.303 1905.697,2129.825C1906.447,2133.396 1910.636,2137.544 1911.047,2142.972C1911.177,2144.686 1910.821,2144.911 1911.196,2145.217C1913.278,2146.917 1916.731,2146.283 1916.826,2145.803C1917.993,2139.904 1922.228,2137.473 1924.906,2134.377C1927.599,2131.266 1926.646,2128.982 1928.065,2121.301C1929.494,2113.573 1934,2111.208 1937.833,2104.374C1940.173,2100.201 1939.649,2096.796 1939.547,2096.13C1938.522,2089.47 1931.629,2081.738 1919.231,2081.547C1914.274,2081.471 1910.004,2083.272 1908.019,2084.593C1907.945,2084.642 1907.946,2084.64 1907.093,2085.202ZM1905.006,2091.857C1905.037,2091.853 1905.035,2091.935 1905.066,2091.931C1905.254,2091.904 1905.221,2091.79 1905.216,2091.773C1905.208,2091.745 1905.176,2091.729 1905.168,2091.702C1905.602,2091.353 1905.594,2091.352 1906.018,2090.991C1906.305,2091.172 1906.311,2090.998 1906.445,2090.677C1906.585,2090.594 1906.557,2090.552 1908.151,2089.566C1909.813,2088.539 1911.899,2087.793 1913.779,2087.327C1915.255,2086.96 1916.603,2086.765 1917.521,2086.74C1919.503,2086.684 1927.861,2086.25 1934.764,2093.993C1934.772,2094.016 1934.701,2094.015 1934.709,2094.037C1934.81,2094.32 1934.989,2094.305 1935.022,2094.302C1935.061,2094.352 1935.465,2094.861 1935.523,2094.929C1935.536,2094.959 1935.435,2094.96 1935.448,2094.99C1935.508,2095.125 1935.623,2095.226 1935.707,2095.347C1935.786,2095.46 1935.81,2095.363 1935.834,2095.361C1935.85,2095.359 1935.852,2095.396 1935.868,2095.394C1936.262,2095.976 1936.306,2096.042 1936.343,2096.098C1936.305,2096.18 1936.256,2096.186 1936.332,2096.278C1936.388,2096.347 1936.425,2096.435 1936.496,2096.487C1936.515,2096.502 1936.535,2096.429 1936.555,2096.444C1937.857,2098.727 1938.027,2099.551 1936.738,2102.077C1934.089,2107.266 1927.942,2112.455 1926.075,2117.541C1924.861,2120.851 1924.883,2125.55 1924.197,2129.816C1924.058,2130.676 1923.87,2131.225 1923.096,2132.122C1923.044,2132.114 1923.091,2132.06 1923.04,2132.052C1922.998,2132.046 1923.059,2132.077 1923.036,2132.113L1922.957,2132.236L1922.881,2132.286C1922.862,2132.296 1922.836,2132.264 1922.817,2132.275C1922.811,2132.278 1922.813,2132.279 1922.749,2132.327C1922.743,2132.331 1922.713,2132.487 1922.711,2132.501L1922.506,2132.672L1922.412,2132.77L1922.279,2132.885C1922.217,2132.896 1922.227,2132.903 1922.163,2132.951L1922.093,2133.005L1922.024,2133.06L1921.956,2133.116C1921.894,2133.17 1921.889,2133.157 1921.866,2133.219L1921.836,2133.251C1921.83,2133.283 1921.976,2133.342 1921.796,2133.458C1921.41,2133.708 1921.502,2133.855 1919.986,2134.615C1917.776,2135.722 1913.709,2136.196 1910.341,2132.917C1909.638,2132.232 1909.669,2132.206 1909.51,2131.934C1909.465,2131.856 1909.371,2131.806 1909.349,2131.717C1909.347,2131.708 1909.377,2131.745 1909.439,2131.635L1909.441,2131.63C1909.44,2131.625 1909.436,2131.622 1909.432,2131.619C1909.421,2131.616 1909.407,2131.615 1909.415,2131.6C1908.719,2130.713 1908.805,2130.659 1908.629,2130.402C1908.644,2130.057 1908.415,2129.887 1908.377,2129.858C1908.337,2129.776 1908.177,2129.446 1908.032,2128.768C1907.804,2127.69 1907.955,2127.678 1908.574,2123.365C1909.866,2114.88 1910.096,2114.53 1907.891,2109.303C1906.995,2107.179 1905.715,2104.36 1904.69,2101.479C1902.313,2094.49 1903.102,2093.982 1904.347,2092.514C1904.395,2092.457 1904.411,2092.483 1905.006,2091.857ZM1920.488,2134.016C1918.625,2134.794 1914.693,2135.979 1910.418,2132.617C1910.442,2132.684 1910.322,2132.636 1910.345,2132.699C1910.351,2132.715 1910.352,2132.717 1910.504,2132.85C1910.524,2132.868 1910.551,2132.876 1910.57,2132.895C1912.462,2134.793 1916.138,2136.134 1919.671,2134.55C1919.742,2134.518 1920.513,2134.173 1920.538,2134.113C1920.552,2134.079 1920.473,2134.049 1920.488,2134.016ZM1917.703,2085.9C1917.648,2085.9 1917.104,2086.01 1916.89,2085.551C1916.819,2085.4 1916.745,2084.73 1917.491,2084.703C1917.503,2084.702 1918.774,2084.477 1918.679,2085.37C1918.657,2085.576 1918.535,2085.695 1918.514,2085.716C1918.194,2086.028 1918.138,2085.874 1917.703,2085.9ZM1909.35,2086.757C1909.762,2086.873 1910.228,2087.495 1909.326,2087.965C1909.304,2087.977 1908.547,2088.525 1908.209,2087.897C1907.92,2087.36 1908.603,2086.785 1909.35,2086.757ZM1933.756,2090.289C1934.169,2090.404 1934.903,2091.008 1934.65,2091.552C1934.268,2092.377 1933.156,2091.412 1933.126,2090.937C1933.086,2090.296 1933.685,2090.29 1933.756,2090.289ZM1918.866,2139.148C1917.74,2140.499 1917.708,2140.635 1917.628,2140.51C1917.608,2140.48 1917.801,2139.296 1917.818,2139.19C1917.84,2139.052 1917.855,2139.043 1920.07,2136.982C1920.47,2136.609 1920.868,2136.147 1920.819,2136.465C1920.716,2137.118 1920.6,2137.068 1919.509,2138.39C1919.459,2138.451 1919.457,2138.448 1918.866,2139.148ZM1925.164,2086.311C1925.347,2085.559 1925.971,2085.837 1926.361,2085.964C1927.453,2086.319 1926.792,2087.044 1926.698,2087.106C1926.454,2087.267 1925.137,2087.166 1925.164,2086.311ZM1930.009,2087.569C1930.666,2087.748 1931.445,2088.493 1930.856,2088.984C1930.364,2089.395 1929.301,2088.612 1929.346,2088.143C1929.404,2087.536 1929.94,2087.565 1930.009,2087.569ZM1913.759,2086.379C1913.576,2086.433 1912.604,2086.897 1912.406,2086.143C1912.203,2085.367 1913.586,2085.085 1913.905,2085.284C1913.926,2085.298 1914.653,2085.915 1913.759,2086.379ZM1909.769,2136.015C1909.498,2135.418 1909.405,2135.423 1909.49,2134.764C1909.527,2134.471 1909.632,2134.832 1911.471,2137.842C1911.783,2138.353 1911.612,2138.485 1911.52,2139.306C1911.517,2139.33 1911.467,2139.781 1911.373,2139.563C1910.892,2138.435 1910.092,2136.707 1909.978,2136.46C1909.787,2136.048 1909.786,2136.05 1909.769,2136.015ZM2062.735,2312.327L2062.73,2311.272C2062.399,2310.943 2062.831,2310.769 2062.499,2310.439C2062.393,2310.334 2062.366,2310.424 2060.669,2310.227C2056.401,2310.302 1396.554,2310.346 1388.996,2310.205C1387.525,2310.3 1386.853,2309.701 1386.776,2311.229C1386.76,2311.568 1386.965,2311.527 1386.925,2315.472C1386.894,2318.464 1386.554,2318.382 1386.561,2318.637C1386.574,2319.171 1386.959,2319.648 1386.972,2320.183L2063.711,2320.183C2062.4,2316.388 2062.672,2316.348 2062.735,2312.327ZM1609.705,2137.9C1607.282,2136.3 1607.184,2136.383 1602.068,2136.382C1585.474,2136.379 1582.507,2135.167 1581.088,2143.808C1577.007,2168.649 1564.587,2239.327 1561.761,2256.886C1561.096,2261.015 1555.483,2276.762 1569.687,2280.407C1570.652,2280.655 1570.665,2280.626 1685.265,2280.626C1694.441,2280.626 1697.149,2281.906 1698.835,2272.612C1701.983,2255.256 1703.08,2252.618 1699.328,2250.962C1696.943,2249.91 1594.395,2251.193 1593.13,2250.266C1592.263,2249.631 1592.343,2248.218 1599.18,2209.744C1601.387,2197.322 1601.691,2191.371 1602.99,2190.719C1603.958,2190.232 1604.013,2190.286 1686.28,2190.286C1689.189,2190.286 1708.588,2193.107 1711.302,2173.01C1712.149,2166.736 1714.348,2160.6 1707.588,2160.435C1703.329,2160.33 1620.777,2160.408 1613.228,2160.415C1609.416,2160.418 1607.489,2161.245 1608.068,2157.345C1610.369,2141.854 1611.428,2141.64 1609.705,2137.9ZM1953.956,2129.131C1954.017,2129.471 1954.024,2129.82 1954.085,2130.16C1954.347,2131.628 1955.281,2131.192 1962.251,2131.192C2419.256,2131.191 2419.257,2131.192 2419.837,2131.228C2421.972,2131.358 2423.06,2132.449 2423.117,2130.214C2423.117,2130.203 2422.807,2128.124 2422.883,2124.899C2422.939,2122.537 2423.277,2122.428 2422.729,2121.914C2422.617,2121.809 2422.592,2121.906 2420.845,2121.806C2408.938,2122.107 1955.017,2121.576 1954.414,2122.083C1953.865,2122.544 1953.948,2128.566 1953.956,2129.131ZM1419.213,2129.149C1419.516,2130.543 1419.042,2131.167 1420.44,2131.241C1427.25,2131.605 1427.212,2131.192 1505.68,2131.192C1547.768,2131.192 1547.731,2131.527 1551.384,2131.355C1552.842,2131.286 1552.283,2130.611 1552.401,2129.096C1552.362,2123.171 1552.453,2121.643 1551.31,2121.845C1550.994,2121.901 1550.781,2122.306 1550.461,2122.311C1550.123,2122.316 1550.165,2121.877 1546.265,2121.883C1493.8,2121.961 1420.269,2121.661 1419.719,2122.097C1419.052,2122.626 1419.199,2128.584 1419.213,2129.149ZM2385.344,2310.211C2379.772,2310.338 2256.947,2310.307 2252.426,2310.226C2251.912,2310.287 2251.936,2310.169 2251.411,2310.232C2250.207,2310.374 2250.484,2311.153 2250.364,2311.272L2250.355,2312.327C2250.359,2313.026 2250.401,2313.725 2250.405,2314.425C2250.406,2314.677 2250.417,2316.693 2250.281,2317.582C2250.077,2318.907 2250.338,2318.862 2250.398,2320.183L2388.384,2320.183C2388.185,2319.454 2387.196,2318.099 2387.354,2313.378C2387.436,2310.929 2387.702,2310.827 2387.235,2310.371C2387.125,2310.264 2387.098,2310.36 2385.344,2310.211ZM2221.483,2310.778C2225.302,2305.662 2225.559,2303.293 2226.237,2299.803C2227.838,2291.567 2234.104,2254.428 2234.77,2250.479C2247.719,2173.736 2248.117,2173.668 2247.291,2169.939C2244.799,2158.688 2232.856,2160.415 2226.048,2160.415C2123.359,2160.415 2123.298,2160.313 2120.427,2161.214C2107.276,2165.342 2106.755,2180.753 2106.491,2182.52C2104.723,2194.343 2100.428,2217.088 2099.318,2224.391C2097.122,2238.851 2093.75,2256.108 2093.257,2259.99C2092.396,2266.787 2095.547,2273.966 2105.308,2274.673C2107.311,2274.818 2173.39,2274.758 2191.548,2274.739L2195.61,2274.735C2199.479,2274.731 2201.471,2273.84 2200.866,2277.805C2200.36,2281.115 2200.044,2283.196 2199.662,2284.508C2199.207,2286.072 2198.659,2286.543 2197.587,2286.701C2197.174,2286.762 2105.002,2286.712 2100.235,2286.731C2092.473,2286.762 2092.658,2290.381 2091.089,2300.81C2089.886,2308.807 2087.852,2314.18 2091.253,2316.212C2092.295,2316.834 2092.394,2316.764 2184.449,2316.764C2213.082,2316.764 2214.05,2317.66 2221.483,2310.778ZM2169.534,2248.237L2150.967,2248.237C2125.81,2248.237 2125.447,2248.398 2124.851,2247.304C2124.557,2246.765 2130.493,2211.882 2132.243,2203.343C2134.125,2192.307 2133.755,2190.634 2136.742,2190.497C2137.011,2190.485 2213.874,2190.49 2213.943,2190.494C2216.088,2190.633 2215.575,2193.029 2214.592,2198.14C2214.305,2199.63 2210.947,2218.386 2210.632,2220.147C2205.903,2246.556 2206.64,2247.35 2204.664,2248.13C2204.397,2248.235 2204.35,2248.238 2169.534,2248.237ZM1817.791,2008.163C1859.162,2057.592 1857.901,2062.496 1873.862,2062.599C1910.704,2062.838 1911.268,2062.624 1914.308,2061.477C1925.497,2057.253 1918.738,2049.108 1918.044,2048.272C1917.156,2047.201 1849.8,1964.475 1848.65,1963.208C1848.498,1963.041 1846.239,1960.551 1849.228,1960.415C1850.571,1960.354 1868.71,1961.268 1882.438,1959.942C1886.98,1959.503 1916.579,1951.431 1923.137,1919.682C1924.069,1915.172 1934.878,1851.646 1935.026,1849.712C1935.086,1848.928 1936.59,1840.101 1931.876,1829.35C1926.494,1817.076 1913.937,1812.603 1911.961,1811.899C1905.626,1809.642 1905.47,1809.917 1807.327,1809.917C1686.83,1809.917 1686.745,1809.81 1684.243,1810.744C1674.89,1814.235 1676.443,1825.772 1672.872,1843.355C1671.765,1848.81 1672.424,1848.879 1669.254,1866.263C1668.162,1872.253 1668.676,1873.368 1666.68,1882.764C1666.328,1884.422 1662.973,1906.13 1662.658,1908.163C1662.281,1910.606 1658.542,1934.795 1657.972,1938.713C1657.359,1942.931 1640.078,2050.038 1640.136,2053.194C1640.341,2064.317 1651.92,2062.6 1666.863,2062.6C1682.01,2062.6 1689.917,2064.135 1692.063,2049.472C1692.569,2046.015 1696.932,2016.217 1698.05,2006.205C1698.19,2004.948 1701.558,1980.492 1701.866,1978.256C1704.132,1961.807 1704.058,1961.493 1705.303,1960.893C1706.032,1960.543 1706.077,1960.583 1770.363,1960.584C1777.679,1960.584 1778.345,1959.789 1781.773,1963.899C1785.27,1968.092 1814.643,2004.178 1816.137,2005.999C1817.016,2007.071 1816.962,2007.078 1817.791,2008.163ZM1864.124,1917.122C1838.355,1917.125 1717.755,1917.119 1716.149,1917.124C1714.95,1917.128 1711.882,1917.684 1712.3,1914.586C1712.441,1913.54 1719.792,1869.477 1720.058,1867.581C1720.537,1864.178 1720.212,1863.113 1723.557,1862.971C1723.634,1862.968 1878.576,1862.957 1878.733,1862.977C1882.207,1863.42 1880.027,1866.243 1877.204,1886.566C1876.452,1891.986 1876.212,1891.907 1875.703,1894.369C1872.578,1914.884 1873.166,1917.007 1868.934,1917.12L1864.124,1917.122ZM1875.507,2188.361C1876.503,2186.562 1876.548,2186.608 1877.025,2184.584C1879.861,2172.548 1879.568,2164.723 1871.028,2161.301C1868.531,2160.301 1868.432,2160.415 1769.477,2160.415C1744.152,2160.415 1742.648,2159.713 1740.801,2164.581C1739.994,2166.707 1735.559,2193.601 1735.141,2196.132C1732.722,2210.804 1722.629,2269.666 1722.009,2273.631C1720.869,2280.913 1723.792,2280.595 1730.922,2280.597C1745.752,2280.6 1747.742,2281.166 1749.931,2277.621C1750.731,2276.326 1750.802,2276.21 1753.784,2258.84C1754.329,2255.668 1760.01,2222.579 1760.575,2219.18C1765.171,2191.555 1765.054,2191.092 1766.356,2190.649C1766.909,2190.462 1766.92,2190.483 1851.66,2190.483C1871.957,2190.483 1872.299,2190.842 1875.507,2188.361ZM2388.012,2277.266C2388.619,2276.751 2392.172,2273.733 2393.98,2269.211C2395.423,2265.603 2395.031,2265.487 2402.802,2221.274C2404.498,2211.623 2398.514,2205.533 2390.418,2205.363C2384.406,2205.237 2307.338,2205.329 2300.113,2205.337C2296.57,2205.342 2294.746,2206.054 2295.384,2202.437C2297.294,2191.617 2297.043,2191.288 2298.054,2190.809C2299.488,2190.129 2368.541,2190.62 2401.571,2190.48C2408.648,2190.45 2408.581,2186.764 2410.56,2175.132C2411.936,2167.038 2413.647,2162.481 2409.587,2160.821C2408.576,2160.408 2408.529,2160.458 2349.829,2160.458C2285.351,2160.458 2285.193,2160.269 2281.957,2161.808C2275.032,2165.101 2271.705,2169.774 2270.165,2178.393C2269.703,2180.979 2266.722,2197.663 2264.85,2210.806C2264.262,2214.934 2258.164,2232.129 2272.656,2235.205C2276.025,2235.92 2366.411,2235.334 2369.169,2235.524C2371.086,2235.657 2370.777,2237.713 2370.743,2237.943C2370.21,2241.499 2370.05,2241.453 2369.178,2247.423C2369.143,2247.667 2368.845,2249.703 2367.917,2250.231C2366.646,2250.954 2293.312,2250.425 2265.617,2250.575C2258.145,2250.615 2257.564,2252.654 2256.098,2260.945C2253.62,2274.97 2252.043,2279.016 2256.605,2280.427C2257.332,2280.652 2257.347,2280.626 2352.873,2280.626C2381.38,2280.626 2381.793,2281.145 2388.012,2277.266ZM2208.402,2058.961C2213.157,2052.319 2212.528,2047.103 2216.636,2024.003C2219.34,2008.803 2211.174,2009.245 2202.844,2009.242C2025.978,2009.169 2025.993,2009.316 2010.615,2009.247C2005.917,2009.226 2008.019,2006.662 2009.138,1998.483C2010.566,1988.04 2012.445,1978.822 2012.55,1978.093C2015.341,1958.73 2032.189,1859.062 2035.707,1835.825C2037.363,1824.883 2043.741,1808.123 2026.646,1808.345C1995.323,1808.753 1994.234,1807.544 1989.713,1812.894C1986.605,1816.572 1986.431,1820.105 1976.636,1880.342C1972.61,1905.096 1972.234,1904.968 1968.264,1929.782C1962.692,1964.608 1955.735,2004.801 1955.364,2007.456C1953.014,2024.252 1949.305,2036.504 1951.213,2045.638C1953.971,2058.849 1966.89,2061.667 1968.744,2062.071C1971.466,2062.665 1971.457,2062.6 2176.969,2062.6C2202.031,2062.6 2202.521,2063.191 2208.402,2058.961ZM1919.137,2189.728C1921.002,2179.205 1921.164,2178.197 1921.325,2177.192C1922.924,2167.222 1925.062,2161.443 1919.631,2160.549C1918.067,2160.291 1900.885,2160.435 1900.358,2160.465C1899.837,2160.495 1896.309,2160.697 1894.736,2163.899C1893.565,2166.283 1877.59,2263.622 1875.865,2272.51C1874.257,2280.799 1877.536,2280.572 1883.112,2280.597C1900.848,2280.676 1901.219,2280.658 1903.06,2278.532C1905.393,2275.837 1908.877,2248.298 1910.442,2240.068C1914.239,2220.103 1914.002,2218.64 1919.137,2189.728ZM1407.761,2204.569C1404.982,2220.32 1401.878,2230.377 1412.423,2234.604C1415.022,2235.646 1415.118,2235.523 1488.432,2235.523C1511.783,2235.523 1511.987,2235.415 1512.518,2236.12C1513.342,2237.214 1510.999,2249.401 1510.28,2250.044C1509.522,2250.722 1509.345,2250.558 1409.293,2250.574C1400.538,2250.576 1399.444,2251.766 1397.986,2260.995C1395.791,2274.882 1394.299,2278.716 1398.005,2280.178C1399.08,2280.601 1399.135,2280.639 1514.812,2280.626C1517.91,2280.626 1530.274,2282.453 1535.889,2269.302C1536.798,2267.173 1545.307,2221.888 1544.847,2216.045C1544.621,2213.178 1542.09,2205.494 1532.064,2205.351C1521.507,2205.2 1438.791,2205.612 1437.921,2205.117C1437.017,2204.602 1437.352,2202.558 1437.388,2202.334C1439.134,2191.685 1439.179,2191.641 1439.831,2191.001C1440.511,2190.333 1440.7,2190.5 1540.177,2190.483C1548.056,2190.481 1549.84,2190.556 1551.174,2182.461C1553.975,2165.455 1556.323,2160.75 1549.309,2160.485C1548.777,2160.465 1432.074,2160.391 1429.587,2160.524C1423.699,2160.839 1415.275,2164.915 1412.868,2175.046C1411.458,2180.982 1410.84,2188.634 1407.761,2204.569Z" style="fill:rgb(192,35,50);"/>
            </g>
        </g>
    </g>
</svg>
